<svg width="50" height="50" viewBox="0 0 50 50" fill="none" xmlns="http://www.w3.org/2000/svg">
<g clip-path="url(#clip0_39_1227)">
<path fill-rule="evenodd" clip-rule="evenodd" d="M25 50C11.1922 50 0 38.8078 0 25C0 11.1922 11.1922 0 25 0C38.8078 0 50 11.1922 50 25C50 38.8078 38.8078 50 25 50ZM25.4375 36.4453C27.0438 37.5563 29.0813 38.2172 31.2875 38.2172C31.8359 38.2172 32.3781 38.1766 32.9109 38.0969C33.0938 38.1719 33.2703 38.2641 33.4875 38.3891C33.9562 38.6641 34.5828 39.0859 35.3625 39.6547C36.0016 40.1219 36.9062 39.6703 36.9062 38.8844V36.6016C37.2344 36.3891 37.5438 36.1594 37.8359 35.9109C39.6016 34.4141 40.625 32.3672 40.625 30.1719C40.625 28.7266 40.1875 27.375 39.4188 26.2078C39.1764 27.0367 38.848 27.8379 38.4391 28.5984C38.6016 29.1031 38.6875 29.6297 38.6875 30.1719C38.6875 31.7875 37.925 33.3125 36.575 34.4562C36.2267 34.7505 35.8516 35.0115 35.4547 35.2359C35.3076 35.319 35.1852 35.4395 35.0999 35.5853C35.0145 35.731 34.9693 35.8967 34.9688 36.0656V37.0406C34.0422 36.4469 33.4062 36.1672 32.9219 36.1672C32.8674 36.1674 32.8131 36.1721 32.7594 36.1813C31.4019 36.4083 30.0102 36.3173 28.6938 35.9156C27.6275 36.1925 26.538 36.3704 25.4391 36.4469L25.4375 36.4453ZM13.7719 31.8797C14.2871 32.3156 14.8322 32.7151 15.4031 33.075V36.9688C15.4031 37.9531 16.5359 38.5156 17.3344 37.9312C19.5375 36.3219 21.0688 35.4125 21.4516 35.3219C22.3359 35.4625 23.2391 35.5328 24.1516 35.5328C32.2766 35.5328 38.9297 29.8969 38.9297 22.8453C38.9297 15.7922 32.275 10.1562 24.1516 10.1562C16.0281 10.1562 9.375 15.7922 9.375 22.8438C9.375 26.2969 10.9844 29.5172 13.7719 31.8797ZM21.5047 32.9203C20.7188 32.9203 19.5703 33.475 17.8266 34.6453V32.4C17.8258 32.1886 17.769 31.9812 17.6619 31.799C17.5549 31.6167 17.4014 31.4661 17.2172 31.3625C16.5551 30.9878 15.9294 30.5521 15.3484 30.0609C13.0781 28.1406 11.7969 25.5719 11.7969 22.8438C11.7969 17.2031 17.2906 12.55 24.1516 12.55C31.0141 12.55 36.5063 17.2031 36.5063 22.8438C36.5063 28.4844 31.0141 33.1391 24.1516 33.1391C23.3234 33.1391 22.5062 33.0703 21.7078 32.9359C21.6407 32.9251 21.5727 32.9199 21.5047 32.9203ZM17.8531 25.2391C18.9234 25.2391 19.7906 24.3797 19.7906 23.3234C19.7906 22.2656 18.9234 21.4078 17.8531 21.4078C16.7828 21.4078 15.9156 22.2656 15.9156 23.3234C15.9156 24.3813 16.7828 25.2391 17.8531 25.2391ZM24.1516 25.2391C25.2219 25.2391 26.0891 24.3797 26.0891 23.3234C26.0891 22.2656 25.2219 21.4078 24.1516 21.4078C23.0812 21.4078 22.2141 22.2656 22.2141 23.3234C22.2141 24.3813 23.0812 25.2391 24.1516 25.2391ZM30.45 25.2391C31.5203 25.2391 32.3875 24.3797 32.3875 23.3234C32.3875 22.2656 31.5203 21.4078 30.45 21.4078C29.3797 21.4078 28.5125 22.2656 28.5125 23.3234C28.5125 24.3813 29.3797 25.2391 30.45 25.2391Z" fill="#282147"/>
</g>
<defs>
<clipPath id="clip0_39_1227">
<rect width="50" height="50" fill="white"/>
</clipPath>
</defs>
</svg>
