<svg width="23" height="23" viewBox="0 0 23 23" fill="none" xmlns="http://www.w3.org/2000/svg">
<path d="M2.875 5.51042C2.875 4.81146 3.15266 4.14113 3.6469 3.6469C4.14113 3.15266 4.81146 2.875 5.51042 2.875H17.4896C18.1885 2.875 18.8589 3.15266 19.3531 3.6469C19.8473 4.14113 20.125 4.81146 20.125 5.51042V11.5211C19.5365 11.144 18.8885 10.8692 18.2083 10.7084V5.51042C18.2083 5.31979 18.1326 5.13698 17.9978 5.00218C17.863 4.86739 17.6802 4.79167 17.4896 4.79167H5.51042C5.31979 4.79167 5.13698 4.86739 5.00218 5.00218C4.86739 5.13698 4.79167 5.31979 4.79167 5.51042V17.4896C4.79167 17.8863 5.11367 18.2083 5.51042 18.2083H10.7084C10.8713 18.8983 11.1493 19.5452 11.5211 20.125H5.51042C4.81146 20.125 4.14113 19.8473 3.6469 19.3531C3.15266 18.8589 2.875 18.1885 2.875 17.4896V5.51042ZM22.0417 16.7708C22.0417 15.3729 21.4863 14.0323 20.4979 13.0438C19.5094 12.0553 18.1687 11.5 16.7708 11.5C15.3729 11.5 14.0323 12.0553 13.0438 13.0438C12.0553 14.0323 11.5 15.3729 11.5 16.7708C11.5 18.1687 12.0553 19.5094 13.0438 20.4979C14.0323 21.4863 15.3729 22.0417 16.7708 22.0417C18.1687 22.0417 19.5094 21.4863 20.4979 20.4979C21.4863 19.5094 22.0417 18.1687 22.0417 16.7708ZM17.25 17.25L17.251 19.6487C17.251 19.7758 17.2005 19.8977 17.1106 19.9875C17.0208 20.0774 16.8989 20.1279 16.7718 20.1279C16.6447 20.1279 16.5228 20.0774 16.433 19.9875C16.3431 19.8977 16.2926 19.7758 16.2926 19.6487V17.25H13.892C13.7649 17.25 13.643 17.1995 13.5532 17.1097C13.4633 17.0198 13.4128 16.8979 13.4128 16.7708C13.4128 16.6438 13.4633 16.5219 13.5532 16.432C13.643 16.3422 13.7649 16.2917 13.892 16.2917H16.2917V13.8958C16.2917 13.7688 16.3422 13.6469 16.432 13.557C16.5219 13.4672 16.6438 13.4167 16.7708 13.4167C16.8979 13.4167 17.0198 13.4672 17.1097 13.557C17.1995 13.6469 17.25 13.7688 17.25 13.8958V16.2917H19.643C19.77 16.2917 19.8919 16.3422 19.9818 16.432C20.0716 16.5219 20.1221 16.6438 20.1221 16.7708C20.1221 16.8979 20.0716 17.0198 19.9818 17.1097C19.8919 17.1995 19.77 17.25 19.643 17.25H17.25Z" fill="white"/>
</svg>
