<?xml version="1.0" encoding="UTF-8" standalone="no"?>
<!-- Created with Inkscape (http://www.inkscape.org/) -->

<svg
   width="82.260025mm"
   height="94.98539mm"
   viewBox="0 0 82.260025 94.985387"
   version="1.1"
   id="svg5"
   inkscape:version="1.2.2 (b0a8486541, 2022-12-01)"
   sodipodi:docname="logo.svg"
   xmlns:inkscape="http://www.inkscape.org/namespaces/inkscape"
   xmlns:sodipodi="http://sodipodi.sourceforge.net/DTD/sodipodi-0.dtd"
   xmlns="http://www.w3.org/2000/svg"
   xmlns:svg="http://www.w3.org/2000/svg">
  <sodipodi:namedview
     id="namedview7"
     pagecolor="#ffffff"
     bordercolor="#666666"
     borderopacity="1.0"
     inkscape:pageshadow="2"
     inkscape:pageopacity="0.0"
     inkscape:pagecheckerboard="0"
     inkscape:document-units="mm"
     showgrid="false"
     inkscape:object-nodes="true"
     inkscape:zoom="0.5"
     inkscape:cx="-54"
     inkscape:cy="-80"
     inkscape:window-width="1868"
     inkscape:window-height="1005"
     inkscape:window-x="25"
     inkscape:window-y="48"
     inkscape:window-maximized="1"
     inkscape:current-layer="layer1"
     fit-margin-top="0"
     fit-margin-left="0"
     fit-margin-right="0"
     fit-margin-bottom="0"
     inkscape:showpageshadow="2"
     inkscape:deskcolor="#d1d1d1" />
  <defs
     id="defs2" />
  <g
     inkscape:label="Layer 1"
     inkscape:groupmode="layer"
     id="layer1"
     transform="translate(-6.495791,-69.018796)">
    <g
       id="g405"
       transform="matrix(0.86416929,0,0,0.86416929,6.4959328,15.825837)">
      <path
         id="path2773"
         style="opacity:1;fill:#ff0000;stroke-width:1;stroke-linecap:round;stroke-linejoin:round;paint-order:fill markers stroke"
         d="M 47.594513,61.553864 0,89.032806 47.594513,116.51175 95.189543,89.032806 Z" />
      <path
         id="path2775"
         style="opacity:1;fill:#ff0000;fill-opacity:1;stroke-width:1;stroke-linecap:round;stroke-linejoin:round;paint-order:fill markers stroke"
         d="M 95.18954,89.032805 47.594513,116.51175 v 54.95737 L 95.18954,143.99017 Z" />
      <path
         id="path5494"
         style="opacity:1;fill:#ff0000;fill-opacity:1;stroke-width:1;stroke-linecap:round;stroke-linejoin:round;paint-order:fill markers stroke"
         d="m 0,89.032806 47.59502,27.478944 v 54.95737 L 0,143.99017 Z" />
      <g
         aria-label="MaskedRedstonerProZ"
         transform="scale(1.0154952,0.98474123)"
         id="text9852"
         style="font-size:8.46667px;line-height:1.25;fill:#0000ff;stroke-width:0.236834">
        <path
           d="m 6.0469512,123.60214 -1.9896674,-5.30013 h -0.033867 q 0.0254,0.26246 0.042333,0.7112 0.016933,0.44026 0.016933,0.92286 v 3.66607 H 3.3799502 v -6.0452 h 1.1260671 l 1.8626674,4.953 h 0.033867 l 1.896534,-4.953 h 1.1176005 v 6.0452 H 8.6631523 v -3.71687 q 0,-0.44026 0.016933,-0.87206 0.0254,-0.4318 0.042333,-0.70274 h -0.033867 l -2.0150675,5.29167 z"
           id="path37228" />
        <path
           d="m 12.676351,118.98781 q 0.829733,0 1.227667,0.36406 0.397933,0.36407 0.397933,1.15994 v 3.09033 h -0.541867 l -0.143933,-0.64346 h -0.03387 q -0.296333,0.37253 -0.626533,0.55033 -0.321734,0.1778 -0.897467,0.1778 -0.618067,0 -1.024467,-0.32173 -0.406401,-0.3302 -0.406401,-1.02447 0,-0.67734 0.533401,-1.0414 0.5334,-0.37254 1.642534,-0.4064 l 0.770467,-0.0254 v -0.27094 q 0,-0.56726 -0.245534,-0.7874 -0.245533,-0.22013 -0.694267,-0.22013 -0.3556,0 -0.677333,0.11007 -0.321734,0.1016 -0.601134,0.23706 l -0.2286,-0.5588 q 0.296333,-0.16086 0.702734,-0.27093 0.4064,-0.11853 0.846667,-0.11853 z m 0.220133,2.42146 q -0.846667,0.0339 -1.176867,0.27094 -0.321734,0.23706 -0.321734,0.66887 0,0.381 0.2286,0.5588 0.237067,0.1778 0.601134,0.1778 0.575734,0 0.956734,-0.31327 0.381,-0.32173 0.381,-0.98214 v -0.4064 z"
           id="path37230" />
        <path
           d="m 18.662293,122.34908 q 0,0.6604 -0.491067,0.99906 -0.491067,0.33867 -1.3208,0.33867 -0.474134,0 -0.821267,-0.0762 -0.338667,-0.0762 -0.601134,-0.21167 v -0.67733 q 0.270934,0.13547 0.651934,0.254 0.389467,0.11007 0.7874,0.11007 0.567267,0 0.821267,-0.1778 0.254,-0.18627 0.254,-0.49107 0,-0.16933 -0.09313,-0.3048 -0.09313,-0.13547 -0.338667,-0.27094 -0.237067,-0.13546 -0.6858,-0.3048 -0.440267,-0.16933 -0.753534,-0.33866 -0.313267,-0.16934 -0.4826,-0.4064 -0.169333,-0.23707 -0.169333,-0.6096 0,-0.57574 0.465666,-0.889 0.474134,-0.31327 1.236134,-0.31327 0.414867,0 0.770467,0.0847 0.364067,0.0762 0.677334,0.22013 l -0.254,0.59267 q -0.287867,-0.11854 -0.601134,-0.2032 -0.313267,-0.0847 -0.643467,-0.0847 -0.4572,0 -0.702733,0.1524 -0.237067,0.14393 -0.237067,0.39793 0,0.18627 0.110067,0.32174 0.110066,0.127 0.364066,0.254 0.262467,0.11853 0.694267,0.28786 0.4318,0.16087 0.736601,0.3302 0.3048,0.16934 0.465666,0.41487 0.160867,0.23707 0.160867,0.60114 z"
           id="path37232" />
        <path
           d="m 20.499562,120.52874 q 0,0.13547 -0.01693,0.3556 -0.0085,0.22013 -0.01693,0.381 h 0.03387 q 0.0508,-0.0677 0.1524,-0.19473 0.1016,-0.127 0.2032,-0.254 0.110067,-0.13547 0.186267,-0.22014 l 1.4478,-1.53246 h 0.872067 l -1.837267,1.93886 1.964267,2.59927 h -0.897467 l -1.5748,-2.11667 -0.516467,0.44874 v 1.66793 h -0.7366 v -6.43467 h 0.7366 z"
           id="path37234" />
        <path
           d="m 26.036766,118.97934 q 0.584201,0 0.999067,0.254 0.423334,0.254 0.643467,0.71967 0.2286,0.4572 0.2286,1.07526 v 0.44874 h -3.107268 q 0.01693,0.77047 0.389467,1.17687 0.381,0.39793 1.058334,0.39793 0.4318,0 0.762,-0.0762 0.338667,-0.0847 0.694267,-0.23707 v 0.65194 q -0.347133,0.1524 -0.6858,0.22013 -0.338667,0.0762 -0.804334,0.0762 -0.643467,0 -1.143,-0.26247 -0.491067,-0.26246 -0.770467,-0.77893 -0.270933,-0.52493 -0.270933,-1.27847 0,-0.74507 0.245533,-1.27847 0.254,-0.5334 0.702734,-0.82126 0.4572,-0.28787 1.058333,-0.28787 z m -0.0085,0.6096 q -0.533401,0 -0.846667,0.34713 -0.3048,0.33867 -0.364067,0.94827 h 2.311401 q -0.0085,-0.57573 -0.270934,-0.93133 -0.262466,-0.36407 -0.829733,-0.36407 z"
           id="path37236" />
        <path
           d="m 30.668029,123.68681 q -0.846667,0 -1.354667,-0.5842 -0.508,-0.59267 -0.508,-1.76107 0,-1.1684 0.508,-1.76107 0.516467,-0.60113 1.363134,-0.60113 0.524933,0 0.855133,0.19473 0.338667,0.19474 0.550334,0.47414 h 0.0508 q -0.0085,-0.11007 -0.03387,-0.32174 -0.01693,-0.22013 -0.01693,-0.34713 v -1.81187 h 0.745067 v 6.43467 h -0.601134 l -0.110066,-0.6096 h -0.03387 q -0.2032,0.28787 -0.541867,0.49107 -0.338667,0.2032 -0.872067,0.2032 z m 0.118533,-0.61807 q 0.719667,0 1.007534,-0.38946 0.296334,-0.39794 0.296334,-1.19381 v -0.13546 q 0,-0.84667 -0.279401,-1.2954 -0.2794,-0.4572 -1.032933,-0.4572 -0.601134,0 -0.905934,0.4826 -0.296333,0.47413 -0.296333,1.27846 0,0.81281 0.296333,1.26154 0.3048,0.44873 0.9144,0.44873 z"
           id="path37238" />
        <path
           d="m 36.035895,117.55694 q 1.126067,0 1.659467,0.4318 0.541867,0.42333 0.541867,1.28693 0,0.4826 -0.1778,0.80434 -0.1778,0.32173 -0.4572,0.51646 -0.270934,0.18627 -0.575734,0.29634 l 1.659467,2.70933 h -0.889 l -1.464734,-2.49767 h -1.202267 v 2.49767 h -0.762 v -6.0452 z m -0.04233,0.6604 h -0.8636 v 2.24367 h 0.905934 q 0.7366,0 1.075267,-0.28787 0.338666,-0.29633 0.338666,-0.8636 0,-0.59267 -0.3556,-0.8382 -0.3556,-0.254 -1.100667,-0.254 z"
           id="path37240" />
        <path
           d="m 41.285227,118.97934 q 0.5842,0 0.999067,0.254 0.423334,0.254 0.643467,0.71967 0.2286,0.4572 0.2286,1.07526 v 0.44874 h -3.107268 q 0.01693,0.77047 0.389467,1.17687 0.381,0.39793 1.058334,0.39793 0.4318,0 0.762,-0.0762 0.338667,-0.0847 0.694267,-0.23707 v 0.65194 q -0.347133,0.1524 -0.6858,0.22013 -0.338667,0.0762 -0.804334,0.0762 -0.643467,0 -1.143,-0.26247 -0.491067,-0.26246 -0.770467,-0.77893 -0.270934,-0.52493 -0.270934,-1.27847 0,-0.74507 0.245534,-1.27847 0.254,-0.5334 0.702733,-0.82126 0.457201,-0.28787 1.058334,-0.28787 z m -0.0085,0.6096 q -0.5334,0 -0.846667,0.34713 -0.3048,0.33867 -0.364066,0.94827 h 2.311401 q -0.0085,-0.57573 -0.270934,-0.93133 -0.262467,-0.36407 -0.829734,-0.36407 z"
           id="path37242" />
        <path
           d="m 45.91649,123.68681 q -0.846667,0 -1.354667,-0.5842 -0.508001,-0.59267 -0.508001,-1.76107 0,-1.1684 0.508001,-1.76107 0.516466,-0.60113 1.363133,-0.60113 0.524934,0 0.855134,0.19473 0.338667,0.19474 0.550334,0.47414 h 0.0508 q -0.0085,-0.11007 -0.03387,-0.32174 -0.01693,-0.22013 -0.01693,-0.34713 v -1.81187 h 0.745067 v 6.43467 h -0.601134 l -0.110067,-0.6096 h -0.03387 q -0.2032,0.28787 -0.541867,0.49107 -0.338667,0.2032 -0.872067,0.2032 z m 0.118533,-0.61807 q 0.719667,0 1.007534,-0.38946 0.296333,-0.39794 0.296333,-1.19381 v -0.13546 q 0,-0.84667 -0.2794,-1.2954 -0.2794,-0.4572 -1.032934,-0.4572 -0.601133,0 -0.905933,0.4826 -0.296334,0.47413 -0.296334,1.27846 0,0.81281 0.296334,1.26154 0.3048,0.44873 0.9144,0.44873 z"
           id="path37244" />
        <path
           d="m 52.469691,122.34908 q 0,0.6604 -0.491067,0.99906 -0.491067,0.33867 -1.3208,0.33867 -0.474134,0 -0.821267,-0.0762 -0.338667,-0.0762 -0.601134,-0.21167 v -0.67733 q 0.270934,0.13547 0.651934,0.254 0.389466,0.11007 0.7874,0.11007 0.567267,0 0.821267,-0.1778 0.254,-0.18627 0.254,-0.49107 0,-0.16933 -0.09313,-0.3048 -0.09313,-0.13547 -0.338667,-0.27094 -0.237067,-0.13546 -0.6858,-0.3048 -0.440267,-0.16933 -0.753534,-0.33866 -0.313267,-0.16934 -0.4826,-0.4064 -0.169334,-0.23707 -0.169334,-0.6096 0,-0.57574 0.465667,-0.889 0.474134,-0.31327 1.236134,-0.31327 0.414867,0 0.770467,0.0847 0.364067,0.0762 0.677334,0.22013 l -0.254,0.59267 q -0.287867,-0.11854 -0.601134,-0.2032 -0.313267,-0.0847 -0.643467,-0.0847 -0.4572,0 -0.702734,0.1524 -0.237066,0.14393 -0.237066,0.39793 0,0.18627 0.110066,0.32174 0.110067,0.127 0.364067,0.254 0.262467,0.11853 0.694267,0.28786 0.4318,0.16087 0.7366,0.3302 0.304801,0.16934 0.465667,0.41487 0.160867,0.23707 0.160867,0.60114 z"
           id="path37246" />
        <path
           d="m 55.085891,123.07721 q 0.169334,0 0.347134,-0.0254 0.1778,-0.0339 0.287867,-0.0677 v 0.56726 q -0.118534,0.0593 -0.338667,0.0931 -0.220133,0.0423 -0.423334,0.0423 -0.3556,0 -0.6604,-0.11853 -0.296333,-0.127 -0.4826,-0.4318 -0.186267,-0.3048 -0.186267,-0.85514 v -2.6416 h -0.643467 v -0.3556 l 0.651934,-0.29633 0.296333,-0.9652 h 0.440267 v 1.0414 h 1.312334 v 0.57573 h -1.312334 v 2.62467 q 0,0.41487 0.194734,0.61807 0.2032,0.19473 0.516466,0.19473 z"
           id="path37248" />
        <path
           d="m 60.572295,121.32461 q 0,1.12607 -0.575734,1.74413 -0.567267,0.61807 -1.540934,0.61807 -0.601133,0 -1.075267,-0.27093 -0.465667,-0.2794 -0.7366,-0.80434 -0.270934,-0.5334 -0.270934,-1.28693 0,-1.12607 0.567267,-1.73567 0.567267,-0.6096 1.540934,-0.6096 0.618067,0 1.083734,0.2794 0.474134,0.27093 0.7366,0.79587 0.270934,0.51646 0.270934,1.27 z m -3.429002,0 q 0,0.80433 0.313267,1.27847 0.321734,0.46566 1.016001,0.46566 0.6858,0 1.007533,-0.46566 0.321734,-0.47414 0.321734,-1.27847 0,-0.80434 -0.321734,-1.26154 -0.321733,-0.4572 -1.016,-0.4572 -0.694267,0 -1.007534,0.4572 -0.313267,0.4572 -0.313267,1.26154 z"
           id="path37250" />
        <path
           d="m 63.933561,118.97934 q 0.8128,0 1.227667,0.39793 0.414867,0.38947 0.414867,1.27 v 2.95487 h -0.7366 v -2.90407 q 0,-1.0922 -1.016001,-1.0922 -0.753533,0 -1.0414,0.42334 -0.287867,0.42333 -0.287867,1.2192 v 2.35373 H 61.74916 v -4.53813 h 0.601134 l 0.110066,0.61806 h 0.04233 q 0.220133,-0.3556 0.6096,-0.52493 0.389467,-0.1778 0.821267,-0.1778 z"
           id="path37252" />
        <path
           d="m 68.734164,118.97934 q 0.5842,0 0.999067,0.254 0.423333,0.254 0.643467,0.71967 0.2286,0.4572 0.2286,1.07526 v 0.44874 H 67.49803 q 0.01693,0.77047 0.389467,1.17687 0.381,0.39793 1.058333,0.39793 0.4318,0 0.762001,-0.0762 0.338666,-0.0847 0.694267,-0.23707 v 0.65194 q -0.347134,0.1524 -0.685801,0.22013 -0.338667,0.0762 -0.804333,0.0762 -0.643467,0 -1.143001,-0.26247 -0.491067,-0.26246 -0.770467,-0.77893 -0.270933,-0.52493 -0.270933,-1.27847 0,-0.74507 0.245533,-1.27847 0.254,-0.5334 0.702734,-0.82126 0.4572,-0.28787 1.058334,-0.28787 z m -0.0085,0.6096 q -0.5334,0 -0.846667,0.34713 -0.3048,0.33867 -0.364067,0.94827 h 2.311401 q -0.0085,-0.57573 -0.270933,-0.93133 -0.262467,-0.36407 -0.829734,-0.36407 z"
           id="path37254" />
        <path
           d="m 73.873426,118.97934 q 0.127,0 0.270934,0.0169 0.1524,0.008 0.262467,0.0339 l -0.09313,0.6858 q -0.110066,-0.0254 -0.245533,-0.0423 -0.127,-0.0169 -0.245534,-0.0169 -0.347133,0 -0.651933,0.19474 -0.3048,0.18626 -0.491067,0.5334 -0.1778,0.33866 -0.1778,0.79586 v 2.42147 h -0.745067 v -4.53813 h 0.6096 l 0.08467,0.82973 h 0.03387 q 0.220133,-0.37253 0.567266,-0.64347 0.347134,-0.27093 0.821267,-0.27093 z"
           id="path37256" />
        <path
           d="m 76.955294,117.55694 q 1.185334,0 1.727201,0.46567 0.541867,0.46566 0.541867,1.31233 0,0.49953 -0.2286,0.9398 -0.220134,0.4318 -0.753534,0.70273 -0.524933,0.27094 -1.430867,0.27094 h -0.694267 v 2.35373 h -0.762 v -6.0452 z m -0.06773,0.65193 h -0.770467 v 2.3876 h 0.6096 q 0.8636,0 1.286934,-0.2794 0.423333,-0.2794 0.423333,-0.94826 0,-0.5842 -0.372533,-0.87207 -0.372533,-0.28787 -1.176867,-0.28787 z"
           id="path37258" />
        <path
           d="m 82.492491,118.97934 q 0.127,0 0.270933,0.0169 0.1524,0.008 0.262467,0.0339 l -0.09313,0.6858 q -0.110067,-0.0254 -0.245534,-0.0423 -0.127,-0.0169 -0.245533,-0.0169 -0.347134,0 -0.651934,0.19474 -0.3048,0.18626 -0.491067,0.5334 -0.1778,0.33866 -0.1778,0.79586 v 2.42147 h -0.745067 v -4.53813 h 0.6096 l 0.08467,0.82973 h 0.03387 q 0.220133,-0.37253 0.567267,-0.64347 0.347133,-0.27093 0.821267,-0.27093 z"
           id="path37260" />
        <path
           d="m 87.648692,121.32461 q 0,1.12607 -0.575734,1.74413 -0.567267,0.61807 -1.540934,0.61807 -0.601133,0 -1.075267,-0.27093 -0.465667,-0.2794 -0.7366,-0.80434 -0.270934,-0.5334 -0.270934,-1.28693 0,-1.12607 0.567267,-1.73567 0.567267,-0.6096 1.540934,-0.6096 0.618067,0 1.083734,0.2794 0.474133,0.27093 0.7366,0.79587 0.270934,0.51646 0.270934,1.27 z m -3.429002,0 q 0,0.80433 0.313267,1.27847 0.321734,0.46566 1.016001,0.46566 0.6858,0 1.007533,-0.46566 0.321734,-0.47414 0.321734,-1.27847 0,-0.80434 -0.321734,-1.26154 -0.321733,-0.4572 -1.016,-0.4572 -0.694267,0 -1.007534,0.4572 -0.313267,0.4572 -0.313267,1.26154 z"
           id="path37262" />
        <path
           d="M 92.618621,123.60214 H 88.42762 v -0.57573 l 3.183468,-4.79214 H 88.52922 v -0.67733 h 4.004735 v 0.57573 l -3.183468,4.79214 h 3.268134 z"
           id="path37264" />
      </g>
      <path
         id="path37421"
         style="opacity:1;fill:#0000ff;fill-opacity:1;stroke-width:3.77953;stroke-linecap:round;stroke-linejoin:round;paint-order:fill markers stroke"
         d="M 180.80469,0 0.91992188,103.85742 1.6582031,104.2832 H 359.95312 l 0.73829,-0.42578 z"
         transform="matrix(0.26458333,0,0,0.26458333,-0.24356005,61.553864)" />
    </g>
  </g>
</svg>
