<svg width="23" height="23" viewBox="0 0 23 23" fill="none" xmlns="http://www.w3.org/2000/svg">
<path d="M7.93005 11.2125L3.83317 7.11563V10.5417H1.91651V3.83334H8.62484V5.75H5.17484L9.29567 9.84688L7.93005 11.2125ZM3.83317 19.1667C3.30609 19.1667 2.85471 18.9788 2.47905 18.6032C2.10338 18.2275 1.91587 17.7764 1.91651 17.25V12.4583H3.83317V17.25H11.4998V19.1667H3.83317ZM19.1665 12.4583V5.75H10.5415V3.83334H19.1665C19.6936 3.83334 20.145 4.02117 20.5206 4.39684C20.8963 4.7725 21.0838 5.22356 21.0832 5.75V12.4583H19.1665ZM21.0832 14.375V19.1667H13.4165V14.375H21.0832Z" fill="white"/>
</svg>
