<svg width="50" height="50" viewBox="0 0 50 50" fill="none" xmlns="http://www.w3.org/2000/svg">
<path d="M35.4168 16.6667H41.6668L47.9168 25.1167V37.5H43.6772C43.4264 39.2356 42.5586 40.8228 41.2329 41.9707C39.9071 43.1186 38.2122 43.7505 36.4585 43.7505C34.7048 43.7505 33.0099 43.1186 31.6841 41.9707C30.3584 40.8228 29.4906 39.2356 29.2397 37.5H18.6772C18.4296 39.2381 17.5631 40.8285 16.237 41.979C14.9109 43.1296 13.2142 43.7631 11.4585 43.7631C9.70283 43.7631 8.00612 43.1296 6.68 41.979C5.35388 40.8285 4.48741 39.2381 4.23975 37.5H2.0835V12.5C2.0835 11.9475 2.30299 11.4176 2.69369 11.0269C3.08439 10.6362 3.6143 10.4167 4.16683 10.4167H33.3335C33.886 10.4167 34.4159 10.6362 34.8066 11.0269C35.1973 11.4176 35.4168 11.9475 35.4168 12.5V16.6667ZM35.4168 20.8333V27.0833H43.7502V26.4896L39.5668 20.8333H35.4168Z" fill="white"/>
</svg>
